HIERARCHY
ROOT Hips
{
  OFFSET 54.2276 95.6836 13.9603
  CHANNELS 6 Xposition Yposition Zposition Zrotation Xrotation Yrotation
  JOINT spine
  {
    OFFSET 0 7.96568 0.458067
    CHANNELS 3 Zrotation Xrotation Yrotation
    JOINT spine1
    {
      OFFSET 0 10.2431 0
      CHANNELS 3 Zrotation Xrotation Yrotation
      JOINT spine2
      {
        OFFSET 0 9.81475 0
        CHANNELS 3 Zrotation Xrotation Yrotation
        JOINT Neck
        {
          OFFSET 0 25.1986 1.20138
          CHANNELS 3 Zrotation Xrotation Yrotation
          JOINT Head
          {
            OFFSET 0 7.61315 0
            CHANNELS 3 Zrotation Xrotation Yrotation
            End Site
            {
              OFFSET 0 18.4281 -6.07733
            }
          }
        }
        JOINT RightShoulder
        {
          OFFSET -4.1327 10.5992 -0.575451
          CHANNELS 3 Zrotation Xrotation Yrotation
          JOINT RightArm
          {
            OFFSET 0 13.9018 0
            CHANNELS 3 Zrotation Xrotation Yrotation
            JOINT RightArmRoll
            {
              OFFSET 0 7.01789 0
              CHANNELS 3 Zrotation Xrotation Yrotation
              JOINT RightForeArm
              {
                OFFSET 0 20.4406 0
                CHANNELS 3 Zrotation Xrotation Yrotation
                JOINT RightForeArmRoll
                {
                  OFFSET 0 7.87516 0
                  CHANNELS 3 Zrotation Xrotation Yrotation
                  JOINT RightHand
                  {
                    OFFSET 0 15.8037 0
                    CHANNELS 3 Zrotation Xrotation Yrotation
                    End Site
                    {
                      OFFSET 0 0 0
                    }
                  }
                }
              }
            }
          }
        }
        JOINT LeftShoulder
        {
          OFFSET 4.1327 10.5992 -0.575451
          CHANNELS 3 Zrotation Xrotation Yrotation
          JOINT LeftArm
          {
            OFFSET 0 13.9018 0
            CHANNELS 3 Zrotation Xrotation Yrotation
            JOINT LeftArmRoll
            {
              OFFSET 0 7.01789 0
              CHANNELS 3 Zrotation Xrotation Yrotation
              JOINT LeftForeArm
              {
                OFFSET 0 20.4406 0
                CHANNELS 3 Zrotation Xrotation Yrotation
                JOINT LeftForeArmRoll
                {
                  OFFSET 0 7.87515 0
                  CHANNELS 3 Zrotation Xrotation Yrotation
                  JOINT LeftHand
                  {
                    OFFSET 0 15.8037 0
                    CHANNELS 3 Zrotation Xrotation Yrotation
                    End Site
                    {
                      OFFSET 0 0 0
                    }
                  }
                }
              }
            }
          }
        }
      }
    }
  }
  JOINT RightUpLeg
  {
    OFFSET -7.06048 -1.2947 -1.08609
    CHANNELS 3 Zrotation Xrotation Yrotation
    JOINT RightUpLegRoll
    {
      OFFSET 0 18.5308 0
      CHANNELS 3 Zrotation Xrotation Yrotation
      JOINT RightLeg
      {
        OFFSET 0 -22.9476 0
        CHANNELS 3 Zrotation Xrotation Yrotation
        JOINT RightLegRoll
        {
          OFFSET 0 23.0226 0
          CHANNELS 3 Zrotation Xrotation Yrotation
          JOINT RightFoot
          {
            OFFSET 0 19.1625 0
            CHANNELS 3 Zrotation Xrotation Yrotation
            JOINT RightToeBase
            {
              OFFSET 0 16.0188 0
              CHANNELS 3 Zrotation Xrotation Yrotation
              End Site
              {
                OFFSET 0.00678979 7.75782 -0.894207
              }
            }
          }
        }
      }
    }
  }
  JOINT LeftUpLeg
  {
    OFFSET 7.06048 -1.2947 -1.08609
    CHANNELS 3 Zrotation Xrotation Yrotation
    JOINT LeftUpLegRoll
    {
      OFFSET 0 18.5309 0
      CHANNELS 3 Zrotation Xrotation Yrotation
      JOINT LeftLeg
      {
        OFFSET 0 22.9475 0
        CHANNELS 3 Zrotation Xrotation Yrotation
        JOINT LeftLegRoll
        {
          OFFSET 0 23.2355 0
          CHANNELS 3 Zrotation Xrotation Yrotation
          JOINT LeftFoot
          {
            OFFSET 0 18.9496 0
            CHANNELS 3 Zrotation Xrotation Yrotation
            JOINT LeftToeBase
            {
              OFFSET 0 16.0188 0
              CHANNELS 3 Zrotation Xrotation Yrotation
              End Site
              {
                OFFSET -0.0304289 7.75782 -0.894206
              }
            }
          }
        }
      }
    }
  }
}
MOTION
Frames: 12
Frame Time: 0.00208333
54.4442 95.7064 13.5978 0.0671411 -0.452046 2.96931 -0.75975 -2.33165 0.208478 -1.51091 -0.664045 0.474483 -1.51729 0.980672 0.499832 27.0198 23.2611 -12.6508 -18.5946 -0.969267 -5.06658 17.0292 -17.59 -16.2253 -9.47205 43.2482 104.203 -3.54404e-006 -3.2736e-006 -4.30936e-006 -17.5366 35.8677 14.5415 -1.66012e-005 1.69313e-006 -3.0093 8.03017 -4.95135 0.697632 -72.2401 7.76199 -1.99138 -101.203 15.1927 -21.4734 -7.95139e-016 3.18055e-015 3.18055e-015 -2.92145 1.06779 -0.258656 4.78022e-006 -3.10676e-006 3.00771 -8.03029 -4.95138 -0.697642 174.948 -2.19198 -1.79635 180 7.01529e-015 178.846 177.95 5.62334 179.585 1.12461e-006 -6.64692e-007 0.118231 -19.975 69.4289 20.7795 8.17142 25.7441 -2.80261 -174.932 -1.87033 1.1594 4.54188e-006 -4.6773e-006 -1.14488 -1.85347 -3.09982 0.0516495 1.71781e-006 -7.34387e-006 -0.0345891 18.996 68.1675 -19.684 -8.13688 25.241 3.48113 
54.4536 95.7036 13.5955 0.0608583 -0.454351 2.96737 -0.760543 -2.33101 0.207039 -1.51255 -0.662745 0.471211 -1.51878 0.981971 0.496587 26.9571 23.2885 -12.6304 -18.5399 -0.974224 -5.05762 17.2585 -17.5476 -16.1265 -9.12219 43.2262 103.747 -3.54404e-006 -3.2736e-006 -4.30936e-006 -17.4372 35.6982 14.3882 -1.66012e-005 1.69313e-006 -3.0093 8.03017 -4.95135 0.697632 -72.2173 7.74779 -1.98919 -101.229 15.1872 -21.4887 1.90833e-014 6.36111e-015 9.54166e-015 -2.89592 1.0626 -0.259709 4.78022e-006 -3.10676e-006 3.00771 -8.03029 -4.95138 -0.697642 174.951 -2.19403 -1.80214 180 7.01529e-015 178.846 177.957 5.62043 179.584 1.12461e-006 -6.64692e-007 0.118272 -19.9744 69.4279 20.7786 8.17144 25.7443 -2.80327 -174.935 -1.87486 1.16576 4.54188e-006 -4.6773e-006 -1.14486 -1.84725 -3.09359 0.0521995 1.71781e-006 -7.34387e-006 -0.0345786 18.9966 68.168 -19.6845 -8.13688 25.241 3.48116 
54.469 95.7071 13.5972 0.0550391 -0.455618 2.96479 -0.761321 -2.33056 0.205198 -1.51417 -0.661817 0.467299 -1.5202 0.982899 0.492699 26.8958 23.3145 -12.6093 -18.489 -0.978618 -5.04809 17.4813 -17.5049 -16.0293 -8.77489 43.2106 103.303 -3.54404e-006 -3.2736e-006 -4.30936e-006 -17.3417 35.522 14.2385 -1.66012e-005 1.69313e-006 -3.00929 8.03017 -4.95135 0.697632 -72.1942 7.73145 -1.98606 -101.256 15.1821 -21.5031 7.15625e-015 3.18055e-015 3.18055e-015 -2.87113 1.05623 -0.260836 4.78022e-006 -3.10676e-006 3.00771 -8.03029 -4.95138 -0.697642 174.954 -2.19378 -1.80826 180 7.01529e-015 178.846 177.965 5.61953 179.583 1.12461e-006 -6.64692e-007 0.118391 -19.9746 69.4278 20.7787 8.17145 25.7445 -2.80393 -174.938 -1.87755 1.17091 4.54188e-006 -4.6773e-006 -1.14484 -1.84271 -3.08862 0.0526154 1.71781e-006 -7.34387e-006 -0.0345682 18.9971 68.1685 -19.685 -8.13688 25.241 3.48119 
54.4768 95.705 13.5928 0.0497316 -0.455629 2.96156 -0.762082 -2.33034 0.202892 -1.51576 -0.661357 0.462644 -1.52154 0.983359 0.488068 26.8359 23.339 -12.5873 -18.4424 -0.982263 -5.03793 17.6957 -17.4618 -15.9341 -8.43087 43.2035 102.874 -3.54404e-006 -3.2736e-006 -4.30936e-006 -17.251 35.337 14.0933 -1.66012e-005 1.69313e-006 -3.00929 8.03017 -4.95135 0.697632 -72.1709 7.71265 -1.98183 -101.282 15.1776 -21.5164 1.59028e-015 3.18055e-015 6.36111e-015 -2.8473 1.04863 -0.262044 4.78022e-006 -3.10676e-006 3.00771 -8.03029 -4.95138 -0.697642 174.956 -2.1909 -1.81472 180 7.01529e-015 178.846 177.974 5.62078 179.582 1.12461e-006 -6.64692e-007 0.118593 -19.9758 69.4284 20.7797 8.17145 25.7444 -2.80457 -174.941 -1.87807 1.17463 4.54188e-006 -4.6773e-006 -1.14483 -1.84016 -3.08511 0.0528743 1.71781e-006 -7.34387e-006 -0.0345579 18.9976 68.169 -19.6855 -8.13688 25.241 3.48122 
54.4915 95.6924 13.5685 0.0448712 -0.454656 2.95761 -0.762839 -2.33028 0.200126 -1.51736 -0.661207 0.457275 -1.52278 0.983509 0.48272 26.7787 23.3617 -12.5648 -18.4014 -0.985456 -5.02719 17.9066 -17.4187 -15.8403 -8.09107 43.2018 102.457 -3.54404e-006 -3.2736e-006 -4.30936e-006 -17.1635 35.1455 13.9509 -1.66012e-005 1.69313e-006 -3.00929 8.03017 -4.95135 0.697632 -72.1466 7.69158 -1.97673 -101.309 15.1734 -21.5279 2.38542e-014 6.36111e-015 1.27222e-014 -2.82508 1.03948 -0.263298 4.78022e-006 -3.10676e-006 3.00771 -8.03029 -4.95138 -0.697642 174.959 -2.18542 -1.8217 180 7.01529e-015 178.846 177.983 5.6247 179.581 1.12461e-006 -6.64692e-007 0.118901 -19.9781 69.4301 20.782 8.17144 25.7443 -2.80519 -174.943 -1.87672 1.177 4.54188e-006 -4.6773e-006 -1.14481 -1.83942 -3.08293 0.05299 1.71781e-006 -7.34387e-006 -0.0345477 18.998 68.1693 -19.6859 -8.13688 25.241 3.48125 
54.5017 95.6959 13.5692 0.04034 -0.453208 2.95297 -0.763601 -2.33025 0.196981 -1.51898 -0.661108 0.451344 -1.52393 0.983608 0.476808 26.725 23.3827 -12.542 -18.3663 -0.988694 -5.01596 18.1208 -17.3759 -15.7473 -7.75526 43.2002 102.042 -3.54404e-006 -3.2736e-006 -4.30936e-006 -17.0761 34.9524 13.8085 -1.66012e-005 1.69313e-006 -3.00929 8.03017 -4.95135 0.697632 -72.1205 7.66883 -1.97118 -101.337 15.1693 -21.5372 -2.38542e-015 -3.18055e-015 -3.18055e-015 -2.80483 1.02855 -0.264565 4.78022e-006 -3.10676e-006 3.00771 -8.03029 -4.95138 -0.697642 174.961 -2.17781 -1.82932 180 7.01529e-015 178.846 177.994 5.63149 179.58 1.12461e-006 -6.64692e-007 0.119332 -19.9819 69.433 20.7858 8.17143 25.7441 -2.80578 -174.946 -1.87424 1.17843 4.54188e-006 -4.6773e-006 -1.1448 -1.83997 -3.08174 0.0530031 1.71781e-006 -7.34387e-006 -0.0345376 18.9984 68.1697 -19.6863 -8.13688 25.241 3.48128 
54.5192 95.6967 13.5746 0.0361327 -0.451319 2.94768 -0.764364 -2.33025 0.1935 -1.52061 -0.661059 0.444909 -1.52501 0.983658 0.470391 26.6743 23.4021 -12.5189 -18.3361 -0.991979 -5.00426 18.3376 -17.3335 -15.655 -7.42226 43.1987 101.631 -3.54404e-006 -3.2736e-006 -4.30936e-006 -16.9888 34.758 13.6662 -1.66012e-005 1.69313e-006 -3.00929 8.03017 -4.95135 0.697632 -72.093 7.64455 -1.9652 -101.365 15.1654 -21.5448 3.4191e-014 1.27222e-014 9.54166e-015 -2.78611 1.01604 -0.265857 4.78022e-006 -3.10676e-006 3.00771 -8.03029 -4.95138 -0.697642 174.963 -2.16829 -1.83749 180 7.01529e-015 178.846 178.006 5.64082 179.579 1.12461e-006 -6.64692e-007 0.119871 -19.9869 69.437 20.7909 8.17141 25.7439 -2.80635 -174.948 -1.87073 1.17902 4.54188e-006 -4.6773e-006 -1.14478 -1.84169 -3.08144 0.0529236 1.71781e-006 -7.34387e-006 -0.0345275 18.9988 68.17 -19.6866 -8.13688 25.241 3.48131 
54.529 95.6941 13.567 0.032244 -0.449023 2.94178 -0.765124 -2.33027 0.189725 -1.52223 -0.661062 0.438029 -1.526 0.983655 0.463528 26.6259 23.4201 -12.4954 -18.3101 -0.99531 -4.99211 18.5563 -17.2914 -15.5635 -7.09093 43.1976 101.221 -3.54404e-006 -3.2736e-006 -4.30936e-006 -16.9017 34.5625 13.5243 -1.66012e-005 1.69313e-006 -3.00929 8.03017 -4.95135 0.697632 -72.0642 7.61888 -1.95883 -101.394 15.1617 -21.551 3.18055e-015 -3.18055e-015 3.18055e-015 -2.76848 1.00212 -0.267185 4.78022e-006 -3.10676e-006 3.00771 -8.03029 -4.95138 -0.697642 174.966 -2.15706 -1.84612 180 7.01529e-015 178.846 178.018 5.65237 179.577 1.12461e-006 -6.64692e-007 0.120502 -19.993 69.4419 20.7972 8.17139 25.7435 -2.80693 -174.95 -1.8663 1.1789 4.54188e-006 -4.6773e-006 -1.14477 -1.84444 -3.08194 0.0527613 1.71781e-006 -7.34387e-006 -0.0345175 18.9992 68.1704 -19.687 -8.13688 25.241 3.48133 
54.5368 95.7098 13.5627 0.0286688 -0.446352 2.93533 -0.765875 -2.33032 0.185697 -1.52385 -0.661118 0.430764 -1.52694 0.983599 0.456279 26.5793 23.437 -12.4715 -18.2872 -0.998688 -4.97953 18.776 -17.2495 -15.4728 -6.76005 43.1969 100.812 -3.54404e-006 -3.2736e-006 -4.30936e-006 -16.8148 34.3664 13.3827 -1.66012e-005 1.69313e-006 -3.00929 8.03017 -4.95135 0.697632 -72.0344 7.59199 -1.95206 -101.423 15.1582 -21.5562 -1.11319e-014 -3.18055e-015 -0 -2.75151 0.986965 -0.26856 4.78022e-006 -3.10676e-006 3.00771 -8.03029 -4.95138 -0.697642 174.968 -2.14435 -1.85512 180 7.01529e-015 178.846 178.032 5.6658 179.576 1.12461e-006 -6.64692e-007 0.121212 -20.0001 69.4478 20.8045 8.17136 25.7431 -2.80753 -174.952 -1.86103 1.17819 4.54188e-006 -4.6773e-006 -1.14475 -1.8481 -3.08316 0.0525262 1.71781e-006 -7.34387e-006 -0.0345075 18.9996 68.1707 -19.6873 -8.13688 25.241 3.48136 
54.5491 95.7052 13.5591 0.0254018 -0.443338 2.92838 -0.766615 -2.3304 0.181458 -1.52545 -0.661227 0.423171 -1.52781 0.98349 0.448701 26.5338 23.453 -12.4471 -18.2665 -1.00211 -4.96654 18.996 -17.2078 -15.3828 -6.42845 43.1967 100.404 -3.54404e-006 -3.2736e-006 -4.30936e-006 -16.7281 34.1699 13.2418 -1.66012e-005 1.69313e-006 -3.00929 8.03017 -4.95135 0.697632 -72.0039 7.564 -1.94493 -101.453 15.1551 -21.5609 1.59028e-015 -6.36111e-015 3.18055e-015 -2.73477 0.970761 -0.269993 4.78022e-006 -3.10676e-006 3.00771 -8.03029 -4.95138 -0.697642 174.97 -2.13037 -1.86441 180 7.01529e-015 178.846 178.046 5.68083 179.574 1.12461e-006 -6.64692e-007 0.121987 -20.0079 69.4543 20.8127 8.17133 25.7427 -2.80816 -174.955 -1.85505 1.17701 4.54188e-006 -4.6773e-006 -1.14474 -1.85253 -3.085 0.052228 1.71781e-006 -7.34387e-006 -0.0344977 18.9999 68.1709 -19.6876 -8.13688 25.241 3.48139 
54.5533 95.6958 13.5503 0.0224379 -0.440016 2.92097 -0.767338 -2.3305 0.177051 -1.52702 -0.661392 0.415311 -1.52863 0.983325 0.440854 26.4887 23.4682 -12.4221 -18.2471 -1.00559 -4.95316 19.2156 -17.1662 -15.2937 -6.09493 43.1971 99.9962 -3.54404e-006 -3.2736e-006 -4.30936e-006 -16.6416 33.9735 13.1016 -1.66012e-005 1.69313e-006 -3.00928 8.03017 -4.95135 0.697632 -71.9728 7.53508 -1.93746 -101.484 15.1523 -21.5655 2.70347e-014 1.27222e-014 1.90833e-014 -2.71782 0.953688 -0.271496 4.78022e-006 -3.10676e-006 3.00771 -8.03029 -4.95138 -0.697642 174.972 -2.11535 -1.87389 180 7.01529e-015 178.846 178.06 5.69711 179.573 1.12461e-006 -6.64692e-007 0.122812 -20.0164 69.4615 20.8215 8.17129 25.7421 -2.80883 -174.957 -1.84845 1.17547 4.54188e-006 -4.6773e-006 -1.14472 -1.8576 -3.08738 0.0518768 1.71781e-006 -7.34387e-006 -0.0344879 19.0002 68.1712 -19.6879 -8.13688 25.241 3.48142 
54.565 95.6988 13.5464 0.0197717 -0.436417 2.91314 -0.76804 -2.33064 0.172516 -1.52855 -0.661614 0.407241 -1.5294 0.983104 0.432797 26.4436 23.4829 -12.3966 -18.2281 -1.00911 -4.9394 19.4341 -17.1248 -15.2055 -5.75829 43.1981 99.5878 -3.54404e-006 -3.2736e-006 -4.30936e-006 -16.5553 33.7774 12.9623 -1.66012e-005 1.69313e-006 -3.00928 8.03017 -4.95135 0.697632 -71.9415 7.50537 -1.92965 -101.515 15.15 -21.5703 2.22639e-014 6.36111e-015 6.36111e-015 -2.70024 0.935924 -0.27308 4.78022e-006 -3.10676e-006 3.00771 -8.03029 -4.95138 -0.697642 174.974 -2.09949 -1.88347 180 7.01528e-015 178.846 178.076 5.71433 179.571 1.12461e-006 -6.64692e-007 0.123672 -20.0254 69.4691 20.8309 8.17125 25.7415 -2.80957 -174.96 -1.84133 1.17369 4.54188e-006 -4.6773e-006 -1.14471 -1.8632 -3.09021 0.0514823 1.71781e-006 -7.34387e-006 -0.0344782 19.0005 68.1714 -19.6881 -8.13688 25.241 3.48145 
